<svg
        xmlns="http://www.w3.org/2000/svg"
        viewBox="0 0 960 1220"
        width="960"
        height="1220"
        style="
          width: 100%;
          height: 100%;
          transform: translate3d(0px, 0px, 0px);
        "
        preserveAspectRatio="xMidYMid meet"
      >
        <defs>
          <clipPath id="__lottie_element_2">
            <rect width="960" height="1220" x="0" y="0"></rect>
          </clipPath>
        </defs>
        <g clip-path="url(#__lottie_element_2)">
          <g
            class="countries"
            style="display: block;"
            transform="matrix(1,0,0,1,220.0880126953125,78.6700439453125)"
            opacity="0.4999994584157318"
          >
            <g
              opacity="1"
              transform="matrix(1,0,0,1,362.64300537109375,783.2150268554688)"
            >
              <path
                fill="rgb(205,222,235)"
                fill-opacity="1"
                d=" M8.49899959564209,-24.027000427246094 C8.49899959564209,-24.027000427246094 -8.5,-24.027000427246094 -8.5,-24.027000427246094 C-10.59000015258789,-24.027000427246094 -12.284000396728516,-22.30500030517578 -12.284000396728516,-20.180999755859375 C-12.284000396728516,-20.180999755859375 -12.284000396728516,20.18199920654297 -12.284000396728516,20.18199920654297 C-12.284000396728516,22.305999755859375 -10.59000015258789,24.027999877929688 -8.5,24.027999877929688 C-8.5,24.027999877929688 -4.314000129699707,24.027999877929688 -4.314000129699707,24.027999877929688 C-3.7279999256134033,24.027999877929688 -3.1489999294281006,23.889999389648438 -2.624000072479248,23.62299919128418 C-2.624000072479248,23.62299919128418 10.189000129699707,17.128000259399414 10.189000129699707,17.128000259399414 C11.472999572753906,16.47800064086914 12.284000396728516,15.145999908447266 12.284000396728516,13.687000274658203 C12.284000396728516,13.687000274658203 12.284000396728516,-20.180999755859375 12.284000396728516,-20.180999755859375 C12.284000396728516,-22.30500030517578 10.59000015258789,-24.027000427246094 8.49899959564209,-24.027000427246094z"
              ></path>
            </g>
            <g
              opacity="1"
              transform="matrix(1,0,0,1,373.3949890136719,729.0250244140625)"
            >
              <path
                fill="rgb(205,222,235)"
                fill-opacity="1"
                d=" M4.697000026702881,-12.781000137329102 C4.697000026702881,-12.781000137329102 0.7540000081062317,-12.781000137329102 0.7540000081062317,-12.781000137329102 C-1.0240000486373901,-12.781000137329102 -2.5880000591278076,-11.659000396728516 -3.0850000381469727,-10.026000022888184 C-3.0850000381469727,-10.026000022888184 -8.541999816894531,7.886000156402588 -8.541999816894531,7.886000156402588 C-9.288000106811523,10.333000183105469 -7.36899995803833,12.781000137329102 -4.703000068664551,12.781000137329102 C-4.703000068664551,12.781000137329102 -0.824999988079071,12.781000137329102 -0.824999988079071,12.781000137329102 C0.9480000138282776,12.781000137329102 2.509000062942505,11.663999557495117 3.009999990463257,10.036999702453613 C3.009999990463257,10.036999702453613 8.531999588012695,-7.875 8.531999588012695,-7.875 C9.288000106811523,-10.324999809265137 7.368000030517578,-12.781000137329102 4.697000026702881,-12.781000137329102z"
              ></path>
            </g>
            <g
              opacity="1"
              transform="matrix(1,0,0,1,463.4289855957031,397.2380065917969)"
            >
              <path
                fill="rgb(205,222,235)"
                fill-opacity="1"
                d=" M2.7660000324249268,-14.314000129699707 C1.690000057220459,-14.314000129699707 0.8190000057220459,-13.439000129699707 0.8190000057220459,-12.359000205993652 C0.8190000057220459,-12.359000205993652 0.8190000057220459,-8.288999557495117 0.8190000057220459,-8.288999557495117 C0.8190000057220459,-7.210000038146973 -0.05400000140070915,-6.335000038146973 -1.1299999952316284,-6.335000038146973 C-1.1299999952316284,-6.335000038146973 -2.486999988555908,-6.335000038146973 -2.486999988555908,-6.335000038146973 C-3.003999948501587,-6.335000038146973 -3.499000072479248,-6.540999889373779 -3.864000082015991,-6.9070000648498535 C-3.864000082015991,-6.9070000648498535 -4.716000080108643,-7.761000156402588 -4.716000080108643,-7.761000156402588 C-5.081999778747559,-8.128000259399414 -5.578000068664551,-8.333999633789062 -6.093999862670898,-8.333999633789062 C-6.093999862670898,-8.333999633789062 -8.751999855041504,-8.333999633789062 -8.751999855041504,-8.333999633789062 C-9.89900016784668,-8.333999633789062 -10.79699993133545,-7.34499979019165 -10.692000389099121,-6.198999881744385 C-10.692000389099121,-6.198999881744385 -9.16100025177002,10.406999588012695 -9.16100025177002,10.406999588012695 C-9.16100025177002,10.406999588012695 -8.925999641418457,12.571999549865723 -8.925999641418457,12.571999549865723 C-8.819000244140625,13.562999725341797 -7.984000205993652,14.314000129699707 -6.988999843597412,14.314000129699707 C-6.988999843597412,14.314000129699707 3.493000030517578,14.314000129699707 3.493000030517578,14.314000129699707 C4.4720001220703125,14.314000129699707 5.298999786376953,13.585000038146973 5.425000190734863,12.612000465393066 C5.425000190734863,12.612000465393066 6.915999889373779,1.0720000267028809 6.915999889373779,1.0720000267028809 C7.041999816894531,0.09799999743700027 7.869999885559082,-0.6309999823570251 8.848999977111816,-0.6309999823570251 C9.923999786376953,-0.6309999823570251 10.79699993133545,-1.50600004196167 10.79699993133545,-2.5859999656677246 C10.79699993133545,-2.5859999656677246 10.79699993133545,-12.359000205993652 10.79699993133545,-12.359000205993652 C10.79699993133545,-13.439000129699707 9.923999786376953,-14.314000129699707 8.848999977111816,-14.314000129699707 C8.848999977111816,-14.314000129699707 2.7660000324249268,-14.314000129699707 2.7660000324249268,-14.314000129699707z"
              ></path>
            </g>
            <g
              opacity="1"
              transform="matrix(1,0,0,1,151.24600219726562,376.78900146484375)"
            >
              <path
                fill="rgb(205,222,235)"
                fill-opacity="1"
                d=" M-35.007999420166016,36.80799865722656 C-35.007999420166016,36.80799865722656 8.628999710083008,36.80799865722656 8.628999710083008,36.80799865722656 C9.994000434875488,36.80799865722656 11.281000137329102,36.17499923706055 12.114999771118164,35.09400177001953 C12.114999771118164,35.09400177001953 38.494998931884766,0.902999997138977 38.494998931884766,0.902999997138977 C39.090999603271484,0.13099999725818634 39.41299819946289,-0.8159999847412109 39.41299819946289,-1.7920000553131104 C39.41299819946289,-1.7920000553131104 39.41299819946289,-32.39799880981445 39.41299819946289,-32.39799880981445 C39.41299819946289,-34.83399963378906 37.441001892089844,-36.80799865722656 35.00899887084961,-36.80799865722656 C35.00899887084961,-36.80799865722656 9.793999671936035,-36.80799865722656 9.793999671936035,-36.80799865722656 C7.517000198364258,-36.80799865722656 5.617000102996826,-35.06999969482422 5.408999919891357,-32.79899978637695 C5.408999919891357,-32.79899978637695 4.995999813079834,-28.275999069213867 4.995999813079834,-28.275999069213867 C4.789000034332275,-26.0049991607666 2.885999917984009,-24.26799964904785 0.609000027179718,-24.26799964904785 C0.609000027179718,-24.26799964904785 -17.047000885009766,-24.26799964904785 -17.047000885009766,-24.26799964904785 C-18.44300079345703,-24.26799964904785 -19.756000518798828,-23.606000900268555 -20.586000442504883,-22.483999252319336 C-20.586000442504883,-22.483999252319336 -26.827999114990234,-14.052000045776367 -26.827999114990234,-14.052000045776367 C-28.27400016784668,-12.098999977111816 -27.868000030517578,-9.343000411987305 -25.922000885009766,-7.890999794006348 C-25.922000885009766,-7.890999794006348 -20.888999938964844,-4.132999897003174 -20.888999938964844,-4.132999897003174 C-19.774999618530273,-3.3010001182556152 -19.118000030517578,-1.9889999628067017 -19.118000030517578,-0.597000002861023 C-19.118000030517578,-0.597000002861023 -19.118000030517578,2.7160000801086426 -19.118000030517578,2.7160000801086426 C-19.118000030517578,5.151000022888184 -21.09000015258789,7.125 -23.52199935913086,7.125 C-23.52199935913086,7.125 -35.007999420166016,7.125 -35.007999420166016,7.125 C-37.439998626708984,7.125 -39.41299819946289,9.097999572753906 -39.41299819946289,11.534000396728516 C-39.41299819946289,11.534000396728516 -39.41299819946289,32.39799880981445 -39.41299819946289,32.39799880981445 C-39.41299819946289,34.83300018310547 -37.439998626708984,36.80799865722656 -35.007999420166016,36.80799865722656z"
              ></path>
            </g>
            <g
              opacity="1"
              transform="matrix(1,0,0,1,226.48899841308594,378.322998046875)"
            >
              <path
                fill="rgb(205,222,235)"
                fill-opacity="1"
                d=" M-63.470001220703125,84.15299987792969 C-63.470001220703125,84.15299987792969 -63.470001220703125,89.1500015258789 -63.470001220703125,89.1500015258789 C-63.470001220703125,91.58300018310547 -61.49700164794922,93.55400085449219 -59.0620002746582,93.55400085449219 C-59.0620002746582,93.55400085449219 59.0629997253418,93.55400085449219 59.0629997253418,93.55400085449219 C61.49700164794922,93.55400085449219 63.470001220703125,91.58300018310547 63.470001220703125,89.1500015258789 C63.470001220703125,89.1500015258789 63.470001220703125,61.74599838256836 63.470001220703125,61.74599838256836 C63.470001220703125,59.3129997253418 61.49700164794922,57.34199905395508 59.0629997253418,57.34199905395508 C59.0629997253418,57.34199905395508 51.51100158691406,57.34199905395508 51.51100158691406,57.34199905395508 C49.07699966430664,57.34199905395508 47.104000091552734,55.36800003051758 47.104000091552734,52.93600082397461 C47.104000091552734,52.93600082397461 47.104000091552734,11.892000198364258 47.104000091552734,11.892000198364258 C47.104000091552734,11.552000045776367 47.06399917602539,11.21399974822998 46.98699951171875,10.881999969482422 C46.98699951171875,10.881999969482422 35.145999908447266,-39.29499816894531 35.145999908447266,-39.29499816894531 C34.83000183105469,-40.63100051879883 35.15599822998047,-42.0359992980957 36.027000427246094,-43.097999572753906 C36.027000427246094,-43.097999572753906 42.46699905395508,-50.95100021362305 42.46699905395508,-50.95100021362305 C43.112998962402344,-51.73899841308594 43.46500015258789,-52.7239990234375 43.46500015258789,-53.74300003051758 C43.46500015258789,-53.74300003051758 43.46500015258789,-89.1500015258789 43.46500015258789,-89.1500015258789 C43.46500015258789,-91.58300018310547 41.492000579833984,-93.55400085449219 39.058998107910156,-93.55400085449219 C39.058998107910156,-93.55400085449219 8.557999610900879,-93.55400085449219 8.557999610900879,-93.55400085449219 C6.123000144958496,-93.55400085449219 4.14900016784668,-91.58300018310547 4.14900016784668,-89.1500015258789 C4.14900016784668,-89.1500015258789 4.14900016784668,-34.42599868774414 4.14900016784668,-34.42599868774414 C4.14900016784668,-31.993000030517578 2.1760001182556152,-30.02199935913086 -0.257999986410141,-30.02199935913086 C-0.257999986410141,-30.02199935913086 -6.622000217437744,-30.02199935913086 -6.622000217437744,-30.02199935913086 C-9.055999755859375,-30.02199935913086 -11.029999732971191,-28.049999237060547 -11.029999732971191,-25.618000030517578 C-11.029999732971191,-25.618000030517578 -11.029999732971191,29.086999893188477 -11.029999732971191,29.086999893188477 C-11.029999732971191,31.297000885009766 -12.668999671936035,33.165000915527344 -14.862000465393066,33.45399856567383 C-14.862000465393066,33.45399856567383 -18.88800048828125,33.983001708984375 -18.88800048828125,33.983001708984375 C-21.110000610351562,34.2760009765625 -22.759000778198242,36.18899917602539 -22.719999313354492,38.428001403808594 C-22.719999313354492,38.428001403808594 -22.17300033569336,69.75599670410156 -22.17300033569336,69.75599670410156 C-22.135000228881836,71.93900299072266 -23.70199966430664,73.82099914550781 -25.857999801635742,74.1780014038086 C-25.857999801635742,74.1780014038086 -59.784000396728516,79.80799865722656 -59.784000396728516,79.80799865722656 C-61.9109992980957,80.16200256347656 -63.470001220703125,81.9990005493164 -63.470001220703125,84.15299987792969z"
              ></path>
            </g>
            <g
              opacity="1"
              transform="matrix(1,0,0,1,561.97998046875,200.2779998779297)"
            >
              <path
                fill="rgb(205,222,235)"
                fill-opacity="1"
                d=" M-161.6739959716797,120.43299865722656 C-161.6739959716797,120.43299865722656 -111.75399780273438,120.43299865722656 -111.75399780273438,120.43299865722656 C-109.61100006103516,120.43299865722656 -107.8740005493164,118.6969985961914 -107.8740005493164,116.55500030517578 C-107.8740005493164,116.55500030517578 -107.8740005493164,101.84100341796875 -107.8740005493164,101.84100341796875 C-107.8740005493164,99.697998046875 -106.13700103759766,97.96099853515625 -103.99299621582031,97.96099853515625 C-103.99299621582031,97.96099853515625 -94.03800201416016,97.96099853515625 -94.03800201416016,97.96099853515625 C-92.0459976196289,97.96099853515625 -90.37699890136719,99.46900177001953 -90.177001953125,101.45099639892578 C-90.177001953125,101.45099639892578 -80.56199645996094,196.5399932861328 -80.56199645996094,196.5399932861328 C-80.36100006103516,198.52099609375 -78.69300079345703,200.0279998779297 -76.69999694824219,200.0279998779297 C-76.69999694824219,200.0279998779297 -64.98300170898438,200.0279998779297 -64.98300170898438,200.0279998779297 C-62.84000015258789,200.0279998779297 -61.10300064086914,198.29200744628906 -61.10300064086914,196.1490020751953 C-61.10300064086914,196.1490020751953 -61.10300064086914,190.61000061035156 -61.10300064086914,190.61000061035156 C-61.10300064086914,188.46800231933594 -59.36399841308594,186.72999572753906 -57.22200012207031,186.72999572753906 C-57.22200012207031,186.72999572753906 -28.764999389648438,186.72999572753906 -28.764999389648438,186.72999572753906 C-26.621000289916992,186.72999572753906 -24.884000778198242,184.99400329589844 -24.884000778198242,182.8520050048828 C-24.884000778198242,182.8520050048828 -24.884000778198242,122.2249984741211 -24.884000778198242,122.2249984741211 C-24.884000778198242,120.50399780273438 -23.749000549316406,118.98799896240234 -22.097000122070312,118.50299835205078 C-22.097000122070312,118.50299835205078 6.607999801635742,110.06999969482422 6.607999801635742,110.06999969482422 C8.260000228881836,109.58499908447266 9.394000053405762,108.06999969482422 9.394000053405762,106.3489990234375 C9.394000053405762,106.3489990234375 9.394000053405762,85.55000305175781 9.394000053405762,85.55000305175781 C9.394000053405762,83.40799713134766 7.6570000648498535,81.66999816894531 5.513999938964844,81.66999816894531 C5.513999938964844,81.66999816894531 2.6029999256134033,81.66999816894531 2.6029999256134033,81.66999816894531 C0.460999995470047,81.66999816894531 -1.2769999504089355,79.93399810791016 -1.2769999504089355,77.79199981689453 C-1.2769999504089355,77.79199981689453 -1.2769999504089355,23.374000549316406 -1.2769999504089355,23.374000549316406 C-1.2769999504089355,22.21500015258789 -0.7580000162124634,21.118000030517578 0.13699999451637268,20.3799991607666 C0.13699999451637268,20.3799991607666 35.79199981689453,-8.972999572753906 35.79199981689453,-8.972999572753906 C36.68600082397461,-9.710000038146973 37.20500183105469,-10.807000160217285 37.20500183105469,-11.965999603271484 C37.20500183105469,-11.965999603271484 37.20500183105469,-54.422000885009766 37.20500183105469,-54.422000885009766 C37.20500183105469,-56.564998626708984 38.94300079345703,-58.301998138427734 41.08599853515625,-58.301998138427734 C41.08599853515625,-58.301998138427734 78.5979995727539,-58.301998138427734 78.5979995727539,-58.301998138427734 C80.74199676513672,-58.301998138427734 82.47899627685547,-56.564998626708984 82.47899627685547,-54.422000885009766 C82.47899627685547,-54.422000885009766 82.47899627685547,-39.62699890136719 82.47899627685547,-39.62699890136719 C82.47899627685547,-38.742000579833984 82.177001953125,-37.88399887084961 81.62300109863281,-37.19499969482422 C81.62300109863281,-37.19499969482422 42.26499938964844,11.75 42.26499938964844,11.75 C41.71200180053711,12.439000129699707 41.40999984741211,13.29800033569336 41.40999984741211,14.182000160217285 C41.40999984741211,14.182000160217285 41.40999984741211,70.49800109863281 41.40999984741211,70.49800109863281 C41.40999984741211,72.0260009765625 42.305999755859375,73.41100311279297 43.70000076293945,74.03700256347656 C43.70000076293945,74.03700256347656 69.06900024414062,85.42400360107422 69.06900024414062,85.42400360107422 C70.0270004272461,85.8550033569336 71.12000274658203,85.87799835205078 72.09600067138672,85.48899841308594 C72.09600067138672,85.48899841308594 128.0500030517578,63.18600082397461 128.0500030517578,63.18600082397461 C128.8459930419922,62.869998931884766 129.51400756835938,62.297000885009766 129.9510040283203,61.560001373291016 C129.9510040283203,61.560001373291016 164.56100463867188,3.1410000324249268 164.56100463867188,3.1410000324249268 C165.55499267578125,1.4639999866485596 165.1479949951172,-0.6899999976158142 163.61300659179688,-1.8910000324249268 C163.61300659179688,-1.8910000324249268 146.0800018310547,-15.605999946594238 146.0800018310547,-15.605999946594238 C145.13900756835938,-16.340999603271484 144.59100341796875,-17.466999053955078 144.59100341796875,-18.660999298095703 C144.59100341796875,-18.660999298095703 144.59100341796875,-48.39899826049805 144.59100341796875,-48.39899826049805 C144.59100341796875,-48.92399978637695 144.48300170898438,-49.44300079345703 144.27699279785156,-49.92499923706055 C144.27699279785156,-49.92499923706055 107.74400329589844,-135.26800537109375 107.74400329589844,-135.26800537109375 C107.30999755859375,-136.2790069580078 107.3270034790039,-137.4239959716797 107.79000091552734,-138.4219970703125 C107.79000091552734,-138.4219970703125 123.66600036621094,-172.72799682617188 123.66600036621094,-172.72799682617188 C124.51300048828125,-174.55999755859375 123.81400299072266,-176.73500061035156 122.05699920654297,-177.7310028076172 C122.05699920654297,-177.7310028076172 84.10800170898438,-199.2469940185547 84.10800170898438,-199.2469940185547 C82.73300170898438,-200.02699279785156 81.02100372314453,-199.8939971923828 79.78199768066406,-198.91099548339844 C79.78199768066406,-198.91099548339844 16.863000869750977,-149.00399780273438 16.863000869750977,-149.00399780273438 C16.57699966430664,-148.7760009765625 16.322999954223633,-148.50900268554688 16.111000061035156,-148.21099853515625 C16.111000061035156,-148.21099853515625 -68.5009994506836,-29.108999252319336 -68.5009994506836,-29.108999252319336 C-69.2300033569336,-28.084999084472656 -70.40799713134766,-27.47599983215332 -71.66600036621094,-27.47599983215332 C-71.66600036621094,-27.47599983215332 -80.30899810791016,-27.47599983215332 -80.30899810791016,-27.47599983215332 C-80.9990005493164,-27.47599983215332 -81.677001953125,-27.29199981689453 -82.27200317382812,-26.941999435424805 C-82.27200317382812,-26.941999435424805 -163.63699340820312,20.742000579833984 -163.63699340820312,20.742000579833984 C-164.82400512695312,21.437999725341797 -165.55499267578125,22.711999893188477 -165.55499267578125,24.089000701904297 C-165.55499267578125,24.089000701904297 -165.55499267578125,116.55500030517578 -165.55499267578125,116.55500030517578 C-165.55499267578125,118.6969985961914 -163.8179931640625,120.43299865722656 -161.6739959716797,120.43299865722656z"
              ></path>
            </g>
            <g
              opacity="1"
              transform="matrix(1,0,0,1,459.1099853515625,855.8090209960938)"
            >
              <path
                fill="rgb(205,222,235)"
                fill-opacity="1"
                d=" M8.298999786376953,-8.46500015258789 C8.298999786376953,-8.46500015258789 -24.358999252319336,-19.937999725341797 -24.358999252319336,-19.937999725341797 C-24.358999252319336,-19.937999725341797 -29.118999481201172,-13.79699993133545 -29.118999481201172,-13.79699993133545 C-30.472000122070312,-12.050999641418457 -30.083999633789062,-9.54699993133545 -28.261999130249023,-8.279999732971191 C-28.261999130249023,-8.279999732971191 12.3149995803833,19.937999725341797 12.3149995803833,19.937999725341797 C12.3149995803833,19.937999725341797 30.472000122070312,-5.1519999504089355 30.472000122070312,-5.1519999504089355 C30.472000122070312,-5.1519999504089355 15.720000267028809,-17.070999145507812 15.720000267028809,-17.070999145507812 C15.720000267028809,-17.070999145507812 8.298999786376953,-8.46500015258789 8.298999786376953,-8.46500015258789z"
              ></path>
            </g>
            <g
              opacity="1"
              transform="matrix(1,0,0,1,370.0799865722656,578.4039916992188)"
            >
              <path
                fill="rgb(205,222,235)"
                fill-opacity="1"
                d=" M349.8399963378906,10.449000358581543 C348.9859924316406,9.14900016784668 347.510986328125,8.387999534606934 345.9530029296875,8.444000244140625 C345.9530029296875,8.444000244140625 264.3869934082031,11.331000328063965 264.3869934082031,11.331000328063965 C262.0320129394531,11.413999557495117 260.0199890136719,9.656000137329102 259.7909851074219,7.316999912261963 C259.7909851074219,7.316999912261963 257.53399658203125,-15.842000007629395 257.53399658203125,-15.842000007629395 C257.3999938964844,-17.23200035095215 257.92498779296875,-18.604000091552734 258.9549865722656,-19.54800033569336 C258.9549865722656,-19.54800033569336 286.14599609375,-44.45899963378906 286.14599609375,-44.45899963378906 C287.0790100097656,-45.314998626708984 287.60400390625,-46.527000427246094 287.5870056152344,-47.79100036621094 C287.5870056152344,-47.79100036621094 286.32598876953125,-147.2779998779297 286.32598876953125,-147.2779998779297 C286.3110046386719,-148.4810028076172 286.7850036621094,-149.63800048828125 287.6409912109375,-150.48699951171875 C287.6409912109375,-150.48699951171875 340.9389953613281,-203.35800170898438 340.9389953613281,-203.35800170898438 C342.0369873046875,-204.447998046875 342.489013671875,-206.02999877929688 342.13299560546875,-207.53399658203125 C342.13299560546875,-207.53399658203125 325.4519958496094,-277.9419860839844 325.4519958496094,-277.9419860839844 C324.9570007324219,-280.0360107421875 323.0299987792969,-281.47601318359375 320.87701416015625,-281.3599853515625 C320.87701416015625,-281.3599853515625 286.8869934082031,-279.5379943847656 286.8869934082031,-279.5379943847656 C284.3970031738281,-279.40399169921875 282.5,-277.25799560546875 282.67999267578125,-274.7749938964844 C282.67999267578125,-274.7749938964844 286.00799560546875,-229.03599548339844 286.00799560546875,-229.03599548339844 C286.1789855957031,-226.6909942626953 284.48699951171875,-224.6179962158203 282.1510009765625,-224.30599975585938 C282.1510009765625,-224.30599975585938 243.64999389648438,-219.18299865722656 243.64999389648438,-219.18299865722656 C241.40199279785156,-218.88400268554688 239.73800659179688,-216.9499969482422 239.781005859375,-214.68899536132812 C239.781005859375,-214.68899536132812 240.72300720214844,-165.88600158691406 240.72300720214844,-165.88600158691406 C240.77099609375,-163.39700317382812 238.76199340820312,-161.35400390625 236.26699829101562,-161.35400390625 C236.26699829101562,-161.35400390625 223.375,-161.35400390625 223.375,-161.35400390625 C221.4600067138672,-161.35400390625 219.75900268554688,-160.13299560546875 219.1490020751953,-158.32200622558594 C219.1490020751953,-158.32200622558594 216.32000732421875,-149.92100524902344 216.32000732421875,-149.92100524902344 C215.7689971923828,-148.28199768066406 214.3179931640625,-147.11199951171875 212.5959930419922,-146.91799926757812 C212.5959930419922,-146.91799926757812 198.2209930419922,-145.3000030517578 198.2209930419922,-145.3000030517578 C198.07400512695312,-145.2830047607422 197.92599487304688,-145.2740020751953 197.7790069580078,-145.27200317382812 C197.7790069580078,-145.27200317382812 85.76399993896484,-143.78799438476562 85.76399993896484,-143.78799438476562 C83.27799987792969,-143.7550048828125 81.24700164794922,-145.7550048828125 81.24700164794922,-148.23399353027344 C81.24700164794922,-148.23399353027344 81.24700164794922,-151.93299865722656 81.24700164794922,-151.93299865722656 C81.24700164794922,-153.2530059814453 80.66000366210938,-154.50399780273438 79.6449966430664,-155.3489990234375 C79.6449966430664,-155.3489990234375 68.9729995727539,-164.2220001220703 68.9729995727539,-164.2220001220703 C67.95700073242188,-165.06700134277344 67.36900329589844,-166.31900024414062 67.36900329589844,-167.63800048828125 C67.36900329589844,-167.63800048828125 67.36900329589844,-180.03700256347656 67.36900329589844,-180.03700256347656 C67.36900329589844,-181.33900451660156 67.94200134277344,-182.5760040283203 68.93499755859375,-183.42100524902344 C68.93499755859375,-183.42100524902344 83.1510009765625,-195.51600646972656 83.1510009765625,-195.51600646972656 C84.14399719238281,-196.36199951171875 84.71499633789062,-197.5970001220703 84.71499633789062,-198.89999389648438 C84.71499633789062,-198.89999389648438 84.71499633789062,-214.21099853515625 84.71499633789062,-214.21099853515625 C84.71499633789062,-216.66700744628906 82.71900177001953,-218.6580047607422 80.25700378417969,-218.6580047607422 C80.25700378417969,-218.6580047607422 51.36800003051758,-218.6580047607422 51.36800003051758,-218.6580047607422 C48.90599822998047,-218.6580047607422 46.90999984741211,-216.66700744628906 46.90999984741211,-214.21099853515625 C46.90999984741211,-214.21099853515625 46.90999984741211,-146.02999877929688 46.90999984741211,-146.02999877929688 C46.90999984741211,-143.5 44.797000885009766,-141.47900390625 42.263999938964844,-141.58700561523438 C42.263999938964844,-141.58700561523438 2.990999937057495,-143.24899291992188 2.990999937057495,-143.24899291992188 C1.7339999675750732,-143.302001953125 0.5120000243186951,-142.82200622558594 -0.3709999918937683,-141.92599487304688 C-0.3709999918937683,-141.92599487304688 -43.11600112915039,-98.63200378417969 -43.11600112915039,-98.63200378417969 C-43.95399856567383,-97.78299713134766 -45.097999572753906,-97.30599975585938 -46.292999267578125,-97.30599975585938 C-46.292999267578125,-97.30599975585938 -77.65799713134766,-97.30599975585938 -77.65799713134766,-97.30599975585938 C-78.82099914550781,-97.30599975585938 -79.93900299072266,-96.85199737548828 -80.77200317382812,-96.04100036621094 C-80.77200317382812,-96.04100036621094 -112.13200378417969,-65.49400329589844 -112.13200378417969,-65.49400329589844 C-113.27400207519531,-64.38099670410156 -114.927001953125,-63.9630012512207 -116.46399688720703,-64.39800262451172 C-116.46399688720703,-64.39800262451172 -147.2100067138672,-73.1050033569336 -147.2100067138672,-73.1050033569336 C-149.42799377441406,-73.73300170898438 -151.75900268554688,-72.56999969482422 -152.58799743652344,-70.4229965209961 C-152.58799743652344,-70.4229965209961 -156.08900451660156,-61.33700180053711 -156.08900451660156,-61.33700180053711 C-156.86300659179688,-59.32899856567383 -158.9669952392578,-58.1609992980957 -161.0850067138672,-58.564998626708984 C-161.0850067138672,-58.564998626708984 -204.5659942626953,-66.84700012207031 -204.5659942626953,-66.84700012207031 C-206.52999877929688,-67.22200012207031 -208.5030059814453,-66.24500274658203 -209.39300537109375,-64.45800018310547 C-209.39300537109375,-64.45800018310547 -214.58999633789062,-54.01900100708008 -214.58999633789062,-54.01900100708008 C-215.44200134277344,-52.30799865722656 -215.10499572753906,-50.24399948120117 -213.74899291992188,-48.89400100708008 C-213.74899291992188,-48.89400100708008 -185.91299438476562,-21.165000915527344 -185.91299438476562,-21.165000915527344 C-185.12600708007812,-20.381000518798828 -184.66099548339844,-19.332000732421875 -184.60899353027344,-18.225000381469727 C-184.60899353027344,-18.225000381469727 -182.05499267578125,36.71500015258789 -182.05499267578125,36.71500015258789 C-182.01600646972656,37.5260009765625 -182.2030029296875,38.33300018310547 -182.5919952392578,39.047000885009766 C-182.5919952392578,39.047000885009766 -197.11099243164062,65.66000366210938 -197.11099243164062,65.66000366210938 C-198.11900329589844,67.51000213623047 -200.29299926757812,68.39900207519531 -202.31399536132812,67.79199981689453 C-202.31399536132812,67.79199981689453 -300.2340087890625,38.314998626708984 -300.2340087890625,38.314998626708984 C-301.0169982910156,38.08000183105469 -301.8500061035156,38.0629997253418 -302.6419982910156,38.268001556396484 C-302.6419982910156,38.268001556396484 -340.625,46.500999450683594 -340.625,46.500999450683594 C-342.59100341796875,47.0099983215332 -343.9639892578125,48.77899932861328 -343.9639892578125,50.80500030517578 C-343.9639892578125,50.80500030517578 -356.2019958496094,95.74700164794922 -356.2019958496094,95.74700164794922 C-356.2019958496094,95.74700164794922 -366.2080078125,104.44499969482422 -366.2080078125,104.44499969482422 C-366.2080078125,104.44499969482422 -369.83099365234375,188.36700439453125 -369.83099365234375,188.36700439453125 C-369.83099365234375,188.36700439453125 -360.8160095214844,189.6479949951172 -360.8160095214844,189.6479949951172 C-360.8160095214844,189.6479949951172 -360.8160095214844,215.6300048828125 -360.8160095214844,215.6300048828125 C-360.8160095214844,222.875 -354.9289855957031,228.7480010986328 -347.6659851074219,228.7480010986328 C-347.6659851074219,228.7480010986328 -219.54600524902344,228.7480010986328 -219.54600524902344,228.7480010986328 C-213.10699462890625,228.7480010986328 -207.88699340820312,223.54100036621094 -207.88699340820312,217.11700439453125 C-207.88699340820312,217.11700439453125 -207.88699340820312,168.54200744628906 -207.88699340820312,168.54200744628906 C-207.88699340820312,160.29800415039062 -201.18800354003906,153.61300659179688 -192.92300415039062,153.61300659179688 C-192.92300415039062,153.61300659179688 -133.79800415039062,153.61300659179688 -133.79800415039062,153.61300659179688 C-125.53299713134766,153.61300659179688 -118.83100128173828,146.92799377441406 -118.83100128173828,138.68299865722656 C-118.83100128173828,138.68299865722656 -118.83100128173828,123.13600158691406 -118.83100128173828,123.13600158691406 C-118.83100128173828,114.88999938964844 -112.13200378417969,108.20500183105469 -103.86599731445312,108.20500183105469 C-103.86599731445312,108.20500183105469 20.72800064086914,108.20500183105469 20.72800064086914,108.20500183105469 C21.999000549316406,108.20500183105469 23.208999633789062,108.74700164794922 24.05500030517578,109.69400024414062 C24.05500030517578,109.69400024414062 129.00100708007812,227.15899658203125 129.00100708007812,227.15899658203125 C129.89999389648438,228.16400146484375 130.29100036621094,229.5189971923828 130.07000732421875,230.8470001220703 C130.07000732421875,230.8470001220703 124.70700073242188,263.00799560546875 124.70700073242188,263.00799560546875 C124.33200073242188,265.2590026855469 125.7249984741211,267.427001953125 127.93099975585938,268.02801513671875 C129.4720001220703,268.4469909667969 131.11700439453125,268.0119934082031 132.25,266.88800048828125 C132.25,266.88800048828125 162.34100341796875,236.9810028076172 162.34100341796875,236.9810028076172 C163.82200622558594,235.50900268554688 164.0780029296875,233.20700073242188 162.95599365234375,231.4459991455078 C162.95599365234375,231.4459991455078 158.48399353027344,224.4239959716797 158.48399353027344,224.4239959716797 C157.1719970703125,222.36500549316406 157.7689971923828,219.63600158691406 159.82000732421875,218.30799865722656 C159.82000732421875,218.30799865722656 161.8509979248047,216.9949951171875 161.8509979248047,216.9949951171875 C163.61599731445312,215.85299682617188 165.9409942626953,216.0970001220703 167.4290008544922,217.58099365234375 C167.4290008544922,217.58099365234375 170.63400268554688,220.781005859375 170.63400268554688,220.781005859375 C172.2010040283203,222.343994140625 174.6820068359375,222.52099609375 176.45599365234375,221.19700622558594 C176.45599365234375,221.19700622558594 178.59100341796875,219.12600708007812 178.59100341796875,219.12600708007812 C181.0800018310547,217.26699829101562 180.94700622558594,213.5019989013672 178.33299255371094,211.82400512695312 C178.33299255371094,211.82400512695312 142.09500122070312,180.7530059814453 142.09500122070312,180.7530059814453 C141.63999938964844,180.46200561523438 141.24200439453125,180.08900451660156 140.92100524902344,179.65499877929688 C140.92100524902344,179.65499877929688 71.88899993896484,93.29000091552734 71.88899993896484,93.29000091552734 C70.34600067138672,91.20500183105469 70.90899658203125,88.2509994506836 73.11199951171875,86.87699890136719 C73.11199951171875,86.87699890136719 94.77300262451172,73.3740005493164 94.77300262451172,73.3740005493164 C96.4739990234375,72.31300354003906 98.67400360107422,72.51599884033203 100.1520004272461,73.87000274658203 C100.1520004272461,73.87000274658203 208.3260040283203,173.01600646972656 208.3260040283203,173.01600646972656 C209.33999633789062,173.94500732421875 209.86599731445312,175.28799438476562 209.7530059814453,176.656005859375 C209.7530059814453,176.656005859375 208.0030059814453,197.8470001220703 208.0030059814453,197.8470001220703 C207.93299865722656,198.70599365234375 208.11300659179688,199.5659942626953 208.5240020751953,200.3249969482422 C208.5240020751953,200.3249969482422 250.90899658203125,278.6499938964844 250.90899658203125,278.6499938964844 C251.96400451660156,280.5979919433594 254.2969970703125,281.47601318359375 256.3800048828125,280.7070007324219 C256.3800048828125,280.7070007324219 302.93499755859375,263.5069885253906 302.93499755859375,263.5069885253906 C305.4800109863281,262.5660095214844 306.6000061035156,259.5950012207031 305.3039855957031,257.2149963378906 C305.3039855957031,257.2149963378906 284.5679931640625,219.11099243164062 284.5679931640625,219.11099243164062 C283.3590087890625,216.88800048828125 284.24700927734375,214.10899353027344 286.52301025390625,212.99600219726562 C286.52301025390625,212.99600219726562 330.3489990234375,191.56399536132812 330.3489990234375,191.56399536132812 C332.5260009765625,190.5 335.156005859375,191.36500549316406 336.27099609375,193.51300048828125 C336.27099609375,193.51300048828125 342.0539855957031,204.66600036621094 342.0539855957031,204.66600036621094 C343.1449890136719,206.77000427246094 345.70001220703125,207.65199279785156 347.86199951171875,206.66799926757812 C347.86199951171875,206.66799926757812 369.83099365234375,196.6739959716797 369.83099365234375,196.6739959716797 C369.83099365234375,196.6739959716797 369.83099365234375,40.86600112915039 369.83099365234375,40.86600112915039 C369.83099365234375,40.86600112915039 349.8399963378906,10.449000358581543 349.8399963378906,10.449000358581543z"
              ></path>
            </g>
          </g>
          <g
            class="pipe-blue"
            style="display: block;"
            transform="matrix(1,0,0,1,676.137939453125,639.2659912109375)"
            opacity="1"
          >
            <g class="pipe-start" opacity="1" transform="matrix(1,0,0,1,0,0)">
              <path
                stroke-linecap="butt"
                stroke-linejoin="miter"
                fill-opacity="0"
                stroke-miterlimit="10"
                stroke="rgb(86,168,216)"
                stroke-opacity="1"
                stroke-width="8"
                d=" M283.86199951171875,4 C283.86199951171875,4 0,4 0,4"
              ></path>
            </g>
          </g>
          <g
            class="pipe-blue"
            style="display: block;"
            transform="matrix(1,0,0,1,22.615997314453125,465.4410095214844)"
            opacity="1"
          >
            <g
              class="pipe-end"
              opacity="1"
              transform="matrix(1,0,0,1,306.3280029296875,88.93399810791016)"
            >
              <path
                stroke-linecap="butt"
                stroke-linejoin="miter"
                fill-opacity="0"
                stroke-miterlimit="10"
                stroke="rgb(86,168,216)"
                stroke-opacity="1"
                stroke-width="8"
                d=" M302.3280029296875,88.93399810791016 C302.3280029296875,88.93399810791016 28.645999908447266,88.93399810791016 28.645999908447266,88.93399810791016 C11.045999526977539,88.93399810791016 -3.3540000915527344,74.53500366210938 -3.3540000915527344,56.933998107910156 C-3.3540000915527344,56.933998107910156 -3.3540000915527344,24.378999710083008 -3.3540000915527344,24.378999710083008 C-3.3540000915527344,6.7789998054504395 -17.753999710083008,-7.620999813079834 -35.354000091552734,-7.620999813079834 C-35.354000091552734,-7.620999813079834 -270.3280029296875,-7.620999813079834 -270.3280029296875,-7.620999813079834 C-287.9280090332031,-7.620999813079834 -302.3280029296875,-22.020999908447266 -302.3280029296875,-39.62099838256836 C-302.3280029296875,-39.62099838256836 -302.3280029296875,-88.93399810791016 -302.3280029296875,-88.93399810791016"
              ></path>
            </g>
          </g>
          <g
            class="box-left"
            style="display: block;"
            transform="matrix(1,0,0,1,10.367000579833984,426.52398681640625)"
            opacity="0.99"
          >
            <g opacity="1" transform="matrix(1,0,0,1,16.250999450683594,16.25)">
              <path
                fill="rgb(129,189,226)"
                fill-opacity="1"
                d=" M11.732999801635742,16 C11.732999801635742,16 -11.734000205993652,16 -11.734000205993652,16 C-14.09000015258789,16 -16,14.09000015258789 -16,11.732999801635742 C-16,11.732999801635742 -16,-11.732999801635742 -16,-11.732999801635742 C-16,-14.09000015258789 -14.09000015258789,-16 -11.734000205993652,-16 C-11.734000205993652,-16 11.732999801635742,-16 11.732999801635742,-16 C14.08899974822998,-16 16,-14.09000015258789 16,-11.732999801635742 C16,-11.732999801635742 16,11.732999801635742 16,11.732999801635742 C16,14.09000015258789 14.08899974822998,16 11.732999801635742,16z"
              ></path>
            </g>
            <g opacity="1" transform="matrix(1,0,0,1,16.25,10.560999870300293)">
              <path
                fill="rgb(255,255,255)"
                fill-opacity="1"
                d=" M-5.958000183105469,-1.0670000314712524 C-5.958000183105469,-1.0670000314712524 -1.378999948501587,-5.645999908447266 -1.378999948501587,-5.645999908447266 C-1.378999948501587,-5.645999908447266 -2.888000011444092,-7.1539998054504395 -2.888000011444092,-7.1539998054504395 C-2.888000011444092,-7.1539998054504395 -8.975000381469727,-1.0670000314712524 -8.975000381469727,-1.0670000314712524 C-8.975000381469727,-1.0670000314712524 -16,-1.0670000314712524 -16,-1.0670000314712524 C-16,-1.0670000314712524 -16,1.0670000314712524 -16,1.0670000314712524 C-16,1.0670000314712524 -8.975000381469727,1.0670000314712524 -8.975000381469727,1.0670000314712524 C-8.975000381469727,1.0670000314712524 -2.888000011444092,7.1539998054504395 -2.888000011444092,7.1539998054504395 C-2.888000011444092,7.1539998054504395 -1.378999948501587,5.644999980926514 -1.378999948501587,5.644999980926514 C-1.378999948501587,5.644999980926514 -5.958000183105469,1.0670000314712524 -5.958000183105469,1.0670000314712524 C-5.958000183105469,1.0670000314712524 16,1.0670000314712524 16,1.0670000314712524 C16,1.0670000314712524 16,-1.0670000314712524 16,-1.0670000314712524 C16,-1.0670000314712524 -5.958000183105469,-1.0670000314712524 -5.958000183105469,-1.0670000314712524z"
              ></path>
            </g>
            <g opacity="1" transform="matrix(1,0,0,1,16.25,21.93899917602539)">
              <path
                fill="rgb(255,255,255)"
                fill-opacity="1"
                d=" M2.888000011444092,-7.15500020980835 C2.888000011444092,-7.15500020980835 1.378999948501587,-5.644999980926514 1.378999948501587,-5.644999980926514 C1.378999948501587,-5.644999980926514 5.958000183105469,-1.065999984741211 5.958000183105469,-1.065999984741211 C5.958000183105469,-1.065999984741211 -16,-1.065999984741211 -16,-1.065999984741211 C-16,-1.065999984741211 -16,1.0679999589920044 -16,1.0679999589920044 C-16,1.0679999589920044 5.958000183105469,1.0679999589920044 5.958000183105469,1.0679999589920044 C5.958000183105469,1.0679999589920044 1.378999948501587,5.645999908447266 1.378999948501587,5.645999908447266 C1.378999948501587,5.645999908447266 2.888000011444092,7.15500020980835 2.888000011444092,7.15500020980835 C2.888000011444092,7.15500020980835 8.975000381469727,1.0679999589920044 8.975000381469727,1.0679999589920044 C8.975000381469727,1.0679999589920044 16,1.0679999589920044 16,1.0679999589920044 C16,1.0679999589920044 16,-1.065999984741211 16,-1.065999984741211 C16,-1.065999984741211 8.975000381469727,-1.065999984741211 8.975000381469727,-1.065999984741211 C8.975000381469727,-1.065999984741211 2.888000011444092,-7.15500020980835 2.888000011444092,-7.15500020980835z"
              ></path>
            </g>
          </g>
          <g
            class="pipe-blue"
            style="display: block;"
            transform="matrix(1,0,0,1,29.28399658203125,247.0550079345703)"
            opacity="1"
          >
            <g
              class="pipe-end"
              opacity="1"
              transform="matrix(1,0,0,1,429.93798828125,107.86000061035156)"
            >
              <path
                stroke-linecap="butt"
                stroke-linejoin="miter"
                fill-opacity="0"
                stroke-miterlimit="10"
                stroke="rgb(86,168,216)"
                stroke-opacity="1"
                stroke-width="8"
                d=" M409.93798828125,-87.86000061035156 C409.93798828125,-87.86000061035156 302.9330139160156,-87.86000061035156 302.9330139160156,-87.86000061035156 C285.3340148925781,-87.86000061035156 270.9330139160156,-73.45999908447266 270.9330139160156,-55.86000061035156 C270.9330139160156,-55.86000061035156 270.9330139160156,55.86000061035156 270.9330139160156,55.86000061035156 C270.9330139160156,73.45999908447266 256.53399658203125,87.86000061035156 238.93299865722656,87.86000061035156 C238.93299865722656,87.86000061035156 -409.93798828125,87.86000061035156 -409.93798828125,87.86000061035156"
              ></path>
            </g>
          </g>
          <g
            class="box-right"
            style="display: block;"
            transform="matrix(1,0,0,1,875.2479858398438,250.24600219726562)"
            opacity="0.9999943703536532"
          >
            <g opacity="1" transform="matrix(1,0,0,1,16.25,16.25)">
              <path
                fill="rgb(129,189,226)"
                fill-opacity="1"
                d=" M11.732999801635742,16 C11.732999801635742,16 -11.734000205993652,16 -11.734000205993652,16 C-14.09000015258789,16 -16,14.09000015258789 -16,11.732999801635742 C-16,11.732999801635742 -16,-11.732999801635742 -16,-11.732999801635742 C-16,-14.09000015258789 -14.09000015258789,-16 -11.734000205993652,-16 C-11.734000205993652,-16 11.732999801635742,-16 11.732999801635742,-16 C14.08899974822998,-16 16,-14.09000015258789 16,-11.732999801635742 C16,-11.732999801635742 16,11.732999801635742 16,11.732999801635742 C16,14.09000015258789 14.08899974822998,16 11.732999801635742,16z"
              ></path>
            </g>
            <g opacity="1" transform="matrix(1,0,0,1,16.250999450683594,16.25)">
              <path
                fill="rgb(255,255,255)"
                fill-opacity="1"
                d=" M0.9629999995231628,-9.472000122070312 C0.9629999995231628,-9.472000122070312 0.9629999995231628,-9.472000122070312 0.9629999995231628,-9.472000122070312 C0.6019999980926514,-8.630000114440918 -0.0010000000474974513,-7.577000141143799 -0.0010000000474974513,-6.736000061035156 C-0.0010000000474974513,-3.578000068664551 6.020999908447266,-3.1570000648498535 6.020999908447266,1.5789999961853027 C6.020999908447266,5.683000087738037 2.890000104904175,7.894000053405762 -0.843999981880188,9.472000122070312 C-0.843999981880188,9.472000122070312 -0.9639999866485596,9.472000122070312 -0.9639999866485596,9.472000122070312 C-0.6019999980926514,8.630999565124512 -0.0010000000474974513,7.578000068664551 -0.0010000000474974513,6.736000061035156 C-0.0010000000474974513,3.578000068664551 -6.020999908447266,3.1570000648498535 -6.020999908447266,-1.5779999494552612 C-5.901000022888184,-5.683000087738037 -2.7699999809265137,-7.89300012588501 0.9629999995231628,-9.472000122070312z"
              ></path>
            </g>
          </g>
          <g
            class="pipe-blue"
            style="display: block;"
            transform="matrix(1,0,0,1,913.7939453125,263.05499267578125)"
            opacity="1"
          >
            <g class="pipe-start" opacity="1" transform="matrix(1,0,0,1,0,0)">
              <path
                stroke-linecap="butt"
                stroke-linejoin="miter"
                fill-opacity="0"
                stroke-miterlimit="10"
                stroke="rgb(86,168,216)"
                stroke-opacity="1"
                stroke-width="8"
                d=" M46.20500183105469,4 C46.20500183105469,4 0,4 0,4"
              ></path>
            </g>
          </g>
          <g
            class="pipe-fuchsia"
            style="display: block;"
            transform="matrix(1,0,0,1,649.93798828125,404.0489807128906)"
            opacity="0.55"
          >
            <g
              class="pipe-start"
              opacity="1"
              transform="matrix(1,0,0,1,157.02999877929688,110.2750015258789)"
            >
              <path
                stroke-linecap="butt"
                stroke-linejoin="miter"
                fill-opacity="0"
                stroke-miterlimit="10"
                stroke="rgb(204,46,133)"
                stroke-opacity="1"
                stroke-width="8"
                d=" M153.031005859375,-106.2750015258789 C153.031005859375,-106.2750015258789 36.14099884033203,-106.2750015258789 36.14099884033203,-106.2750015258789 C18.54199981689453,-106.2750015258789 4.140999794006348,-91.875 4.140999794006348,-74.2750015258789 C4.140999794006348,-74.2750015258789 4.140999794006348,-29.225000381469727 4.140999794006348,-29.225000381469727 C4.140999794006348,-11.625 -10.258999824523926,2.7750000953674316 -27.858999252319336,2.7750000953674316 C-27.858999252319336,2.7750000953674316 -121.03099822998047,2.7750000953674316 -121.03099822998047,2.7750000953674316 C-138.63099670410156,2.7750000953674316 -153.031005859375,17.174999237060547 -153.031005859375,34.775001525878906 C-153.031005859375,34.775001525878906 -153.031005859375,106.2750015258789 -153.031005859375,106.2750015258789"
              ></path>
            </g>
          </g>
          <g
            class="pipe-fuchsia"
            style="display: block;"
            transform="matrix(1,0,0,1,649.93798828125,665.9329833984375)"
            opacity="0.55"
          >
            <g
              class="pipe-end"
              opacity="1"
              transform="matrix(1,0,0,1,157.031005859375,235.50999450683594)"
            >
              <path
                stroke-linecap="butt"
                stroke-linejoin="miter"
                fill-opacity="0"
                stroke-miterlimit="10"
                stroke="rgb(204,46,133)"
                stroke-opacity="1"
                stroke-width="8"
                d=" M-153.02999877929688,-235.51100158691406 C-153.02999877929688,-235.51100158691406 -153.02999877929688,-122.2229995727539 -153.02999877929688,-122.2229995727539 C-153.02999877929688,-104.62300109863281 -138.63099670410156,-90.2229995727539 -121.02999877929688,-90.2229995727539 C-121.02999877929688,-90.2229995727539 -41.34199905395508,-90.2229995727539 -41.34199905395508,-90.2229995727539 C-23.742000579833984,-90.2229995727539 -9.246000289916992,-75.8239974975586 -9.128999710083008,-58.224998474121094 C-9.128999710083008,-58.224998474121094 -7.38100004196167,203.50999450683594 -7.38100004196167,203.50999450683594 C-7.263000011444092,221.11000061035156 7.232999801635742,235.50999450683594 24.83300018310547,235.50999450683594 C24.83300018310547,235.50999450683594 153.02999877929688,235.50999450683594 153.02999877929688,235.50999450683594"
              ></path>
            </g>
          </g>
          <g
            class="box-middle"
            style="display: block;"
            transform="matrix(1,0,0,1,637.6900024414062,627.0159912109375)"
            opacity="0.55"
          >
            <g opacity="1" transform="matrix(1,0,0,1,16.25,16.25)">
              <path
                fill="rgb(204,47,134)"
                fill-opacity="1"
                d=" M11.732999801635742,16 C11.732999801635742,16 -11.734000205993652,16 -11.734000205993652,16 C-14.09000015258789,16 -16,14.09000015258789 -16,11.732999801635742 C-16,11.732999801635742 -16,-11.732999801635742 -16,-11.732999801635742 C-16,-14.09000015258789 -14.09000015258789,-16 -11.734000205993652,-16 C-11.734000205993652,-16 11.732999801635742,-16 11.732999801635742,-16 C14.08899974822998,-16 16,-14.09000015258789 16,-11.732999801635742 C16,-11.732999801635742 16,11.732999801635742 16,11.732999801635742 C16,14.09000015258789 14.08899974822998,16 11.732999801635742,16z"
              ></path>
            </g>
            <g
              opacity="1"
              transform="matrix(1,0,0,1,24.783000946044922,20.516000747680664)"
            >
              <path
                fill="rgb(255,255,255)"
                fill-opacity="1"
                d=" M1.065999984741211,5.333000183105469 C1.065999984741211,5.333000183105469 -1.065999984741211,5.333000183105469 -1.065999984741211,5.333000183105469 C-1.065999984741211,5.333000183105469 -1.065999984741211,-5.333000183105469 -1.065999984741211,-5.333000183105469 C-1.065999984741211,-5.333000183105469 1.065999984741211,-5.333000183105469 1.065999984741211,-5.333000183105469 C1.065999984741211,-5.333000183105469 1.065999984741211,5.333000183105469 1.065999984741211,5.333000183105469z"
              ></path>
            </g>
            <g opacity="1" transform="matrix(1,0,0,1,7.7170000076293945,16.25)">
              <path
                fill="rgb(255,255,255)"
                fill-opacity="1"
                d=" M1.065999984741211,9.598999977111816 C1.065999984741211,9.598999977111816 -1.065999984741211,9.598999977111816 -1.065999984741211,9.598999977111816 C-1.065999984741211,9.598999977111816 -1.065999984741211,-9.598999977111816 -1.065999984741211,-9.598999977111816 C-1.065999984741211,-9.598999977111816 1.065999984741211,-9.598999977111816 1.065999984741211,-9.598999977111816 C1.065999984741211,-9.598999977111816 1.065999984741211,9.598999977111816 1.065999984741211,9.598999977111816z"
              ></path>
            </g>
            <g opacity="1" transform="matrix(1,0,0,1,19.094999313354492,16.25)">
              <path
                fill="rgb(255,255,255)"
                fill-opacity="1"
                d=" M1.065999984741211,9.598999977111816 C1.065999984741211,9.598999977111816 -1.065999984741211,9.598999977111816 -1.065999984741211,9.598999977111816 C-1.065999984741211,9.598999977111816 -1.065999984741211,-9.598999977111816 -1.065999984741211,-9.598999977111816 C-1.065999984741211,-9.598999977111816 1.065999984741211,-9.598999977111816 1.065999984741211,-9.598999977111816 C1.065999984741211,-9.598999977111816 1.065999984741211,9.598999977111816 1.065999984741211,9.598999977111816z"
              ></path>
            </g>
            <g
              opacity="1"
              transform="matrix(1,0,0,1,13.404999732971191,20.516000747680664)"
            >
              <path
                fill="rgb(255,255,255)"
                fill-opacity="1"
                d=" M1.065999984741211,5.333000183105469 C1.065999984741211,5.333000183105469 -1.065999984741211,5.333000183105469 -1.065999984741211,5.333000183105469 C-1.065999984741211,5.333000183105469 -1.065999984741211,-5.333000183105469 -1.065999984741211,-5.333000183105469 C-1.065999984741211,-5.333000183105469 1.065999984741211,-5.333000183105469 1.065999984741211,-5.333000183105469 C1.065999984741211,-5.333000183105469 1.065999984741211,5.333000183105469 1.065999984741211,5.333000183105469z"
              ></path>
            </g>
          </g>
        </g>
      </svg>
      